<svg xmlns="http://www.w3.org/2000/svg" viewBox="0 0 671.88 124.11"><defs><style>.cls-1{fill:#025bff;}.cls-2{fill:#fff;}</style></defs><g id="Layer_2" data-name="Layer 2"><g id="Layer_1-2" data-name="Layer 1"><path class="cls-1" d="M170.48,76.16c-2.25-2.31-4.66-4.66-7.24-7-1.31-1.18-2.64-2.39-4-3.59s-2.72-2.32-4.13-3.5q-4.44-3.66-9.31-7.34-2.18-1.65-4.44-3.28c-1.48-1.08-3-2.15-4.53-3.22-5.87-4.09-12.07-8.12-18.52-12-1.84-1.11-3.72-2.22-5.61-3.32l-1-.61c-1.54-.89-3.09-1.76-4.62-2.63,2-.95,4-1.86,6-2.76s4.08-1.79,6.09-2.64a202.13,202.13,0,0,1,28.45-9.77c.9-.22,1.78-.44,2.64-.63a74.62,74.62,0,0,1,16.34-2.2c6.51,0,9.53,1.55,10.3,2.88.89,1.54.52,5.86-4.45,13.23a90.78,90.78,0,0,1-10.16,12.16q-3.72,3.82-8.08,7.75c3.19,2.43,6.24,4.89,9.15,7.34,2.58-2.36,5-4.71,7.24-7A104.15,104.15,0,0,0,182,34.06c7-10.29,8.56-18.79,4.76-25.36C183.45,2.9,176.71,0,166.65,0a91.73,91.73,0,0,0-22,3.23c-2.68.68-5.45,1.45-8.28,2.32a250.32,250.32,0,0,0-30,11.57c-2,.92-4,1.86-6,2.85s-4,1.93-6,2.94l-3,1.55q-4.77,2.47-9.57,5.15c-1.54.87-3.08,1.74-4.62,2.63l-1.06.61q-2.82,1.65-5.6,3.32c-6.45,3.92-12.65,7.95-18.52,12-1.54,1.07-3,2.13-4.53,3.21s-3,2.18-4.43,3.28c-.62-.49-1.23-1-1.84-1.5-.81-.66-1.6-1.33-2.38-2q-2.11-1.78-4.11-3.58-4.35-3.91-8.08-7.75c-6.52-6.72-10.4-12.07-12.57-16.13-2.66-5-2.76-8-2.05-9.26s3.79-2.88,10.31-2.88a61.66,61.66,0,0,1,9.84.9c2.72.45,5.76,1.08,9.15,1.93a202.47,202.47,0,0,1,28.44,9.77L71.85,23q5.28-3,10.55-5.87A235.72,235.72,0,0,0,46.64,3.88c-.84-.23-1.67-.45-2.49-.65A91.8,91.8,0,0,0,22.16,0h0C12.1,0,5.35,2.91,2,8.7S-.52,21.54,4.27,30Q8.85,38.17,18.33,48c2.26,2.31,4.68,4.66,7.25,7q2,1.78,4,3.6l1.8,1.54c.76.65,1.54,1.3,2.32,1.95q4.46,3.67,9.32,7.34,2.18,1.65,4.43,3.29T52,75.89c5.87,4.1,12.07,8.13,18.52,12q2.77,1.68,5.6,3.32l1.06.62q2.31,1.34,4.62,2.62h0c-2,1-4,1.88-6,2.75s-4.07,1.81-6.08,2.66a202.12,202.12,0,0,1-28.43,9.75c-3.39.87-6.43,1.49-9.16,1.94a60.47,60.47,0,0,1-9.83.91c-6.51,0-9.54-1.56-10.31-2.88s-.61-4.28,2.05-9.27c2.18-4.06,6.05-9.42,12.57-16.13q3.72-3.82,8.08-7.74Q30,72.82,25.58,69.15c-2.57,2.35-5,4.7-7.25,7q-9.46,9.77-14,17.9C-.52,102.57-1.29,109.71,2,115.4s10.09,8.71,20.14,8.71a91.44,91.44,0,0,0,22-3.24c.82-.2,1.64-.42,2.48-.64A233.82,233.82,0,0,0,82.39,107c2-.9,4-1.86,6.06-2.83s4-1.94,6-2.94Q100.68,98,107,94.49c1.53-.86,3.08-1.73,4.62-2.62l1-.62c1.89-1.09,3.77-2.2,5.61-3.32,6.45-3.91,12.65-7.94,18.52-12,1.53-1.07,3-2.15,4.53-3.22s3-2.19,4.44-3.29c1.44,1.17,2.85,2.33,4.22,3.51s2.78,2.38,4.1,3.58q4.35,3.92,8.08,7.74a91.36,91.36,0,0,1,10.15,12.16c5,7.38,5.35,11.7,4.46,13.24-.77,1.32-3.79,2.88-10.3,2.88a74,74,0,0,1-16.33-2.21c-.86-.19-1.75-.41-2.65-.64a202.21,202.21,0,0,1-28.44-9.75l-2.1,1.22q-5.26,3-10.54,5.85a247.26,247.26,0,0,0,30,11.59q4.24,1.31,8.27,2.31a91.3,91.3,0,0,0,22,3.24c10.05,0,16.79-2.91,20.14-8.71,3.8-6.57,2.19-15.06-4.76-25.35A103.52,103.52,0,0,0,170.48,76.16ZM61.77,68.56c-1.58-1.06-3.14-2.14-4.66-3.22l0,0a4,4,0,0,1,0-6.49l0,0c1.52-1.08,3.08-2.16,4.66-3.23C68.45,51,75.56,46.55,83,42.27a.64.64,0,0,1,.18-.1C85,41.09,86.89,40,88.75,39l0,0A11.63,11.63,0,0,1,100,39l.06,0c1.85,1,3.72,2.08,5.58,3.16a.87.87,0,0,1,.19.1c7.41,4.28,14.52,8.73,21.21,13.27,1.57,1.07,3.13,2.15,4.65,3.23l.05,0a4,4,0,0,1,0,6.49l-.05,0c-1.52,1.08-3.08,2.16-4.65,3.22-6.69,4.55-13.8,9-21.21,13.28a.87.87,0,0,1-.19.1c-1.86,1.08-3.73,2.13-5.58,3.15l-.06,0a11.52,11.52,0,0,1-11.21,0l0,0c-1.86-1-3.73-2.07-5.59-3.15a.64.64,0,0,1-.18-.1C75.56,77.56,68.45,73.11,61.77,68.56Z"/><path class="cls-1" d="M77.81,64.08c3.51,2.46,7.31,4.87,11.29,7.16l1.8,1h0a7.33,7.33,0,0,0,7,0h0l1.8-1c4-2.29,7.78-4.7,11.29-7.16h0a2.48,2.48,0,0,0,0-4h0c-3.51-2.46-7.31-4.87-11.29-7.16-.6-.35-1.21-.7-1.81-1h0a7.29,7.29,0,0,0-7,0h0c-.61.33-1.21.68-1.81,1-4,2.29-7.78,4.7-11.3,7.15h0a2.5,2.5,0,0,0,0,4.06Z"/><path class="cls-2" d="M222.79,67.7H261.4c9.64,0,15.66,3.5,15.66,13.26,0,10.21-6,14.22-15.66,14.22H232v11.65h-9.18ZM232,75.56V87.27h28.51c4.82,0,7.06-1.61,7.06-5.85s-2.24-5.86-7.06-5.86Z"/><path class="cls-2" d="M281.79,106.83V67.7h38.32c9.64,0,15.67,3.5,15.67,13.2,0,8.43-4.82,12.51-13.72,13l-3.5.06,3.33,2.18,13.31,10.67H323.56L308.47,94.44H291v12.39ZM291,87.5h28.34c5,0,7-1.67,7-5.91,0-4.42-2-6-7-6H291Z"/><path class="cls-2" d="M339.64,87.27c0-14.06,9.7-20.31,31.44-20.31s31.44,6.25,31.44,20.31-9.69,20.31-31.44,20.31S339.64,101.32,339.64,87.27Zm53.59,0c0-8.78-5.34-12.4-22.15-12.4s-22.26,3.62-22.26,12.4,5.45,12.39,22.26,12.39S393.23,96,393.23,87.27Z"/><path class="cls-2" d="M415.59,67.7l18,14.63,18-14.63h13.36L440.72,87.21l24.44,19.62h-14L433.32,92.2l-18,14.63H401.59L426,87.32,401.77,67.7Z"/><path class="cls-2" d="M469.32,106.83V67.7h9.17v39.13Z"/><path class="cls-2" d="M485.88,106.83V67.7h51.41V75H495.06v9h41.08v6H495.06v9.58h42.23v7.29Z"/><path class="cls-2" d="M570.41,107.52a135.29,135.29,0,0,1-27.31-2.93l1.32-7.4a137.55,137.55,0,0,0,28.34,3.1c11.42,0,13.54-1.2,13.54-4.42,0-3.44-2-4-6.08-4.36l-22-1.6c-11.08-.69-15.78-3.91-15.78-11.13,0-8.44,7.06-11.76,25-11.76a142.56,142.56,0,0,1,25.76,2.69l-1.5,7a151.45,151.45,0,0,0-26.33-2.41c-12.1,0-14.17,1-14.17,4.25,0,3,2.18,3.55,6.6,4l21.57,1.6C589.74,84.8,595,88,595,96.1S589.51,107.52,570.41,107.52Z"/><path class="cls-2" d="M340,17.28h9.18V37.7C349.2,51.13,338.52,57,321.48,57s-27.65-5.91-27.65-19.34V17.28H303V35.87c0,9.41,5.74,13.31,18.47,13.31S340,45.28,340,35.87Z"/><path class="cls-2" d="M396.18,48.09h-32l-5.45,8.32h-11l26.39-39.13h12.22l26.39,39.13H401.63Zm-4.3-6.49L380.23,23.82,368.53,41.6Z"/><path class="cls-2" d="M415.9,56.41V17.28h10.5l37.06,29.2V17.28h9.18V56.41H462.32L425.08,26.86V56.41Z"/><path class="cls-2" d="M476.67,25.14V17.28h56v7.86H509.31V56.41h-9.18V25.14Z"/><path class="cls-2" d="M582.61,17.28h9.18V37.7c0,13.43-10.67,19.34-27.71,19.34s-27.65-5.91-27.65-19.34V17.28h9.17V35.87c0,9.41,5.74,13.31,18.48,13.31s18.53-3.9,18.53-13.31Z"/><path class="cls-2" d="M598.79,56.41V17.28H610l25.47,31.55,25.42-31.55h11V56.41h-9.17V28.18L640,56.41h-9.3L608,28.18V56.41Z"/><path class="cls-2" d="M281.63,49.23c2.72-3.13,4-7.23,4-12.39,0-14.05-9.7-20.31-31.44-20.31s-31.44,6.26-31.44,20.31,9.69,20.31,31.44,20.31h36.46V49.23ZM232,36.84c0-8.78,5.45-12.39,22.26-12.39s22.14,3.61,22.14,12.39S271,49.23,254.23,49.23,232,45.62,232,36.84Z"/></g></g></svg>